Coordinates
version=1
nRows=16
nColumns=33
inDegrees=yes

Units are S.I. units (second, meters, Newtons, ...)
Angles are in degrees.

endheader
time	ground_thorax_rot_x	ground_thorax_rot_y	ground_thorax_rot_z	ground_thorax_tx	ground_thorax_ty	ground_thorax_tz	clav_prot_r	clav_elev_r	scapula_abduction_r	scapula_elevation_r	scapula_upward_rot_r	scapula_winging_r	shoulder_elv_r	plane_of_elev_r	axial_rot_r	elbow_flexion_r	pro_sup_r	wrist_flex_r	wrist_dev_r	clav_prot_l	clav_elev_l	scapula_abduction_l	scapula_elevation_l	scapula_upward_rot_l	scapula_winging_l	shoulder_elv_l	plane_of_elev_l	axial_rot_l	elbow_flexion_l	pro_sup_l	wrist_flex_l	wrist_dev_l
      8.63000000	    -32.68986987	    -29.25027005	     31.41630632	    -43.48840326	    850.77283487	    -46.36062423	     26.16086595	    -45.00000000	     40.12363120	    -45.00000000	    -45.00000000	   2415.50759727	   -643.39267712	     21.54378083	   -150.80680117	   1798.41867823	    164.86246540	     17.39576156	     14.62936242	      0.25412241	     32.68163404	    -33.23004842	    -45.00000000	    -45.00000000	   4406.69550633	  -4241.37756058	     29.05150520	     61.40401150	   1790.66255415	   -316.10352337	     13.63272245	    -20.82956258
      8.64000000	    -32.46865384	    -29.68128953	     32.00891768	    -40.17590628	    850.21371460	    -46.24259021	     26.20128091	    -45.00000000	     40.22634451	    -45.00000000	    -45.00000000	   2415.69005167	   -643.51219598	     21.54319580	   -151.12953171	   1798.38364166	    164.66233241	     17.31161706	     14.75739380	      0.28516064	     32.65461138	    -33.25113888	    -45.00000000	    -45.00000000	   4406.61204420	  -4241.29538941	     29.12328627	     61.79372226	   1790.65607748	   -315.77266781	     13.68931597	    -20.60546329
      8.65000000	    -32.26554279	    -30.09857323	     32.58675024	    -36.76400448	    849.48714654	    -46.12493294	     26.18452020	    -45.00000000	     40.26332091	    -45.00000000	    -45.00000000	   2415.92406621	   -643.61387181	     21.56058387	   -151.51151839	   1798.38298706	    164.50298740	     17.20037987	     14.91093590	      0.32873070	     32.63543928	    -33.26348794	    -45.00000000	    -45.00000000	   4406.49659850	  -4241.25161188	     29.16169577	     62.14809887	   1790.68421170	   -315.49025494	     13.72217614	    -20.37102509
      8.66000000	    -32.04864302	    -30.53067600	     33.15339354	    -33.26098802	    848.59862026	    -46.00434379	     26.17098375	    -45.00000000	     40.31055280	    -45.00000000	    -45.00000000	   2416.17494978	   -643.71313685	     21.61149509	   -151.85728664	   1798.38293745	    164.39174864	     17.08150464	     15.05939507	      0.38314426	     32.60366084	    -33.27156060	    -45.00000000	    -45.00000000	   4406.38158011	  -4241.25113266	     29.17202490	     62.37809989	   1790.66051034	   -315.24449727	     13.76114584	    -20.11979196
      8.67000000	    -31.79918946	    -31.00506178	     33.84241255	    -29.67951939	    847.55713437	    -45.87766136	     26.23983489	    -45.00000000	     40.41210778	    -45.00000000	    -45.00000000	   2416.38490340	   -643.84811968	     21.59066337	   -152.10701402	   1798.31294299	    164.33735634	     17.00130847	     15.16969664	      0.44427258	     32.57367290	    -33.26249681	    -45.00000000	    -45.00000000	   4406.30858558	  -4241.27060395	     29.17186509	     62.53032910	   1790.70747228	   -315.05786640	     13.75961338	    -19.86363707
      8.68000000	    -31.55658093	    -31.43371344	     34.50677124	    -26.03772550	    846.38856028	    -45.73737916	     26.21547028	    -45.00000000	     40.43372844	    -45.00000000	    -45.00000000	   2416.63576965	   -643.97453268	     21.60258771	   -152.41593910	   1798.30463218	    164.32339447	     16.85116014	     15.31026212	      0.49236306	     32.53345777	    -33.24263485	    -45.00000000	    -45.00000000	   4406.18193831	  -4241.30961519	     29.15219373	     62.61443045	   1790.73095326	   -314.89070519	     13.77735072	    -19.60888348
      8.69000000	    -31.29472103	    -31.84633129	     35.19650864	    -22.34301368	    845.10373466	    -45.58326266	     26.16512123	    -45.00000000	     40.44106606	    -45.00000000	    -45.00000000	   2416.88427384	   -644.11567922	     21.62096962	   -152.72923570	   1798.29384195	    164.36029436	     16.66653786	     15.45734782	      0.51637873	     32.47567421	    -33.21804543	    -45.00000000	    -45.00000000	   4406.04115044	  -4241.33264315	     29.11967745	     62.66347512	   1790.74393550	   -314.74266963	     13.79849312	    -19.35181993
      8.70000000	    -31.01234608	    -32.23716994	     35.91271059	    -18.60130362	    843.71434846	    -45.41623539	     26.15596015	    -45.00000000	     40.44384125	    -45.00000000	    -45.00000000	   2417.13289048	   -644.26343778	     21.62671985	   -152.98521617	   1798.29127533	    164.45049100	     16.46605126	     15.57330124	      0.55958731	     32.42206999	    -33.15297075	    -45.00000000	    -45.00000000	   4405.88670353	  -4241.38663887	     29.09790874	     62.68019988	   1790.73240461	   -314.61197427	     13.80631561	    -19.07695981
      8.71000000	    -30.67454329	    -32.67460211	     36.67723718	    -14.81917598	    842.23273302	    -45.23809030	     26.33000607	    -45.00000000	     40.52664926	    -45.00000000	    -45.00000000	   2417.34048652	   -644.42109161	     21.62275990	   -153.05779153	   1798.21167180	    164.61508509	     16.33166071	     15.60797497	      0.59767956	     32.39538133	    -33.01506443	    -45.00000000	    -45.00000000	   4405.75846274	  -4241.44131856	     29.10675585	     62.60733868	   1790.66088543	   -314.48592430	     13.77066434	    -18.75303412
      8.72000000	    -30.20509571	    -33.15308138	     37.66829283	    -11.00317506	    840.66896512	    -45.05113500	     26.73143807	    -45.00000000	     40.69452374	    -45.00000000	    -45.00000000	   2417.24730052	   -644.69624942	     21.80410071	   -153.03942658	   1798.22762224	    164.85444903	     16.10583384	     15.74765668	      0.20647484	     32.22168539	    -32.63747310	    -45.00000000	    -45.00000000	   4405.56541207	  -4241.33352006	     29.17827482	     62.72766502	   1790.54869904	   -314.38378569	     13.77186943	    -18.48263169
      8.73000000	    -29.87404413	    -33.49639332	     38.44309972	     -7.15787603	    839.02937431	    -44.85789411	     26.65152425	    -45.00000000	     40.67273148	    -45.00000000	    -45.00000000	   2417.54167692	   -644.85584852	     21.75636256	   -153.31135622	   1798.20309179	    165.15479455	     15.85644450	     15.82574169	      0.28270758	     32.16383257	    -32.53576577	    -45.00000000	    -45.00000000	   4405.37291725	  -4241.41228511	     29.10206144	     62.62888791	   1790.57135105	   -314.29861765	     13.74836151	    -18.19429530
      8.74000000	    -29.40378415	    -33.95858615	     39.38720476	     -3.28861900	    837.31697063	    -44.66083982	     26.68476252	    -45.00000000	     40.80094492	    -45.00000000	    -45.00000000	   2417.79913636	   -645.05702750	     21.70749992	   -153.57430577	   1798.24001037	    165.54876483	     15.50457919	     15.97442796	      0.09228729	     31.94633351	    -32.35671773	    -45.00000000	    -45.00000000	   4405.15710415	  -4241.47845800	     28.87605513	     62.72004235	   1790.62403021	   -314.23988887	     13.79398942	    -17.99571420
      8.75000000	    -29.11974305	    -34.15294144	     40.02748613	      0.60112461	    835.53129136	    -44.46220263	     26.53751171	    -45.00000000	     40.71949997	    -45.00000000	    -45.00000000	   2418.33027716	   -645.15744853	     21.50895358	   -154.08150654	   1798.24022857	    165.99323766	     15.17525837	     15.99402086	      0.33245450	     31.83216745	    -32.31319168	    -45.00000000	    -45.00000000	   4404.83439126	  -4241.55861230	     28.72093642	     62.56040196	   1790.60637178	   -314.15418671	     13.78643271	    -17.66499695
      8.76000000	    -28.94890473	    -34.16225408	     40.58032284	      4.50397173	    833.67147072	    -44.26314147	     26.49438659	    -45.00000000	     40.55411012	    -45.00000000	    -45.00000000	   2418.68665673	   -645.33072036	     21.39058885	   -154.72965524	   1798.17273463	    166.49270354	     14.93426064	     15.92309761	      0.50759122	     31.73224821	    -32.36585988	    -45.00000000	    -45.00000000	   4404.47506932	  -4241.62226082	     28.59618070	     62.43795716	   1790.57056794	   -314.08835890	     13.72064248	    -17.29159138
      8.77000000	    -28.42662099	    -34.55125680	     41.58709427	      8.42576144	    831.72966165	    -44.06304298	     26.55459030	    -45.00000000	     40.60463649	    -45.00000000	    -45.00000000	   2418.77469250	   -645.57292267	     21.46779599	   -154.65141154	   1798.19613275	    167.24897739	     14.73157847	     16.00510497	      0.47784261	     31.72031008	    -32.02700731	    -45.00000000	    -45.00000000	   4404.32887442	  -4241.74320177	     28.59513973	     62.17052418	   1790.53785881	   -314.06042007	     13.63692865	    -17.01822917
      8.78000000	    -28.20445593	    -34.67582087	     42.21548152	     12.35667046	    829.70528110	    -43.86118984	     26.47492454	    -45.00000000	     40.39299907	    -45.00000000	    -45.00000000	   2419.10747445	   -645.77125065	     21.43947911	   -154.84157827	   1798.19044666	    168.11298916	     14.59738155	     16.01145761	      0.69047306	     31.67334798	    -32.07674041	    -45.00000000	    -45.00000000	   4404.32897080	  -4241.99720931	     28.63807036	     61.92253665	   1790.51946535	   -314.04498338	     13.64526369	    -16.83799900
